<svg width="132" height="31" viewBox="0 0 132 31" fill="none" xmlns="http://www.w3.org/2000/svg">
<g clip-path="url(#clip0_13_1138)">
<path d="M0 5.20788C0 2.33165 2.33165 0 5.20788 0H15.8842C18.7605 0 21.0921 2.33165 21.0921 5.20788V25.7789C21.0921 28.6552 18.7605 30.9868 15.8842 30.9868H5.20788C2.33165 30.9868 0 28.6552 0 25.7789V5.20788Z" fill="white" fill-opacity="0.1"/>
<path opacity="0.4" d="M19.9426 7.4969L8.46848 18.9012C8.26417 19.1043 7.9338 19.1029 7.73118 18.8982L1.40751 12.5079C1.20551 12.3038 1.20688 11.9747 1.41056 11.7722L12.8846 0.367931C13.089 0.164858 13.4193 0.166227 13.622 0.370985L19.9456 6.76121C20.1476 6.96533 20.1463 7.29445 19.9426 7.4969Z" fill="url(#paint0_linear_13_1138)"/>
<path d="M20.9417 12.5133L9.22402 24.3575C8.89676 24.6883 8.33301 24.4566 8.33301 23.9913V20.4021C8.33301 20.2649 8.38711 20.1333 8.48357 20.0358L20.2013 8.19161C20.5286 7.86082 21.0923 8.09256 21.0923 8.55789V12.1471C21.0923 12.2842 21.0382 12.4158 20.9417 12.5133Z" fill="#1365EA"/>
<path d="M20.9417 18.242L9.22402 30.0862C8.89676 30.417 8.33301 30.1853 8.33301 29.7199V26.1308C8.33301 25.9936 8.38711 25.862 8.48357 25.7645L20.2013 13.9203C20.5286 13.5895 21.0923 13.8212 21.0923 14.2866V17.8757C21.0923 18.0129 21.0382 18.1445 20.9417 18.242Z" fill="#1365EA"/>
<path d="M7.78404 25.5043L0.892121 18.4919C0.565371 18.1594 -9.63524e-05 18.3908 -9.63524e-05 18.8569V22.4412C-9.63524e-05 22.5777 0.0535408 22.7088 0.149262 22.8062L7.04118 29.8186C7.36793 30.1511 7.9334 29.9197 7.9334 29.4536V25.8694C7.9334 25.7328 7.87976 25.6017 7.78404 25.5043Z" fill="#073C93"/>
<path d="M7.78404 19.8983L0.892121 12.8859C0.565371 12.5535 -9.63524e-05 12.7848 -9.63524e-05 13.251V16.8352C-9.63524e-05 16.9717 0.0535408 17.1028 0.149262 17.2002L7.04118 24.2126C7.36793 24.5451 7.9334 24.3137 7.9334 23.8476V20.2634C7.9334 20.1268 7.87976 19.9957 7.78404 19.8983Z" fill="#073C93"/>
<path d="M7.78404 25.627L0.892121 18.6146C0.565371 18.2821 -9.63524e-05 18.5135 -9.63524e-05 18.9796V22.5638C-9.63524e-05 22.7004 0.0535408 22.8315 0.149262 22.9289L7.04118 29.9413C7.36793 30.2738 7.9334 30.0424 7.9334 29.5763V25.9921C7.9334 25.8555 7.87976 25.7244 7.78404 25.627Z" fill="#073C93"/>
<path d="M7.78404 19.8983L0.892121 12.8859C0.565371 12.5535 -9.63524e-05 12.7848 -9.63524e-05 13.251V16.8352C-9.63524e-05 16.9717 0.0535408 17.1028 0.149262 17.2002L7.04118 24.2126C7.36793 24.5451 7.9334 24.3137 7.9334 23.8476V20.2634C7.9334 20.1268 7.87976 19.9957 7.78404 19.8983Z" fill="#073C93"/>
</g>
<path d="M33.1718 20.6734C32.4818 20.6734 31.8818 20.5634 31.3718 20.3434C30.8618 20.1234 30.4618 19.8184 30.1718 19.4284C29.8818 19.0384 29.7168 18.5984 29.6768 18.1084H31.6868C31.7368 18.2984 31.8218 18.4734 31.9418 18.6334C32.0618 18.7834 32.2218 18.9034 32.4218 18.9934C32.6218 19.0834 32.8618 19.1284 33.1418 19.1284C33.4118 19.1284 33.6318 19.0934 33.8018 19.0234C33.9718 18.9434 34.0968 18.8384 34.1768 18.7084C34.2668 18.5784 34.3118 18.4434 34.3118 18.3034C34.3118 18.0934 34.2518 17.9334 34.1318 17.8234C34.0118 17.7034 33.8368 17.6084 33.6068 17.5384C33.3768 17.4684 33.0968 17.3984 32.7668 17.3284C32.4068 17.2584 32.0518 17.1734 31.7018 17.0734C31.3618 16.9634 31.0568 16.8284 30.7868 16.6684C30.5168 16.5084 30.3018 16.3034 30.1418 16.0534C29.9818 15.8034 29.9018 15.4934 29.9018 15.1234C29.9018 14.6734 30.0218 14.2734 30.2618 13.9234C30.5018 13.5634 30.8518 13.2784 31.3118 13.0684C31.7718 12.8584 32.3268 12.7534 32.9768 12.7534C33.8868 12.7534 34.6068 12.9584 35.1368 13.3684C35.6668 13.7784 35.9818 14.3434 36.0818 15.0634H34.1768C34.1168 14.8334 33.9818 14.6534 33.7718 14.5234C33.5718 14.3834 33.3018 14.3134 32.9618 14.3134C32.6018 14.3134 32.3268 14.3784 32.1368 14.5084C31.9468 14.6384 31.8518 14.8084 31.8518 15.0184C31.8518 15.1584 31.9118 15.2834 32.0318 15.3934C32.1618 15.5034 32.3418 15.5984 32.5718 15.6784C32.8018 15.7484 33.0818 15.8184 33.4118 15.8884C33.9918 16.0084 34.5018 16.1484 34.9418 16.3084C35.3818 16.4584 35.7268 16.6784 35.9768 16.9684C36.2268 17.2484 36.3518 17.6584 36.3518 18.1984C36.3518 18.6784 36.2218 19.1084 35.9618 19.4884C35.7018 19.8584 35.3318 20.1484 34.8518 20.3584C34.3818 20.5684 33.8218 20.6734 33.1718 20.6734ZM41.1852 20.6734C40.4652 20.6734 39.8152 20.5084 39.2352 20.1784C38.6652 19.8384 38.2102 19.3734 37.8702 18.7834C37.5402 18.1834 37.3752 17.4984 37.3752 16.7284C37.3752 15.9384 37.5402 15.2484 37.8702 14.6584C38.2102 14.0584 38.6702 13.5934 39.2502 13.2634C39.8302 12.9234 40.4802 12.7534 41.2002 12.7534C41.9302 12.7534 42.5802 12.9234 43.1502 13.2634C43.7302 13.5934 44.1852 14.0584 44.5152 14.6584C44.8552 15.2484 45.0252 15.9334 45.0252 16.7134C45.0252 17.4934 44.8552 18.1834 44.5152 18.7834C44.1852 19.3734 43.7302 19.8384 43.1502 20.1784C42.5702 20.5084 41.9152 20.6734 41.1852 20.6734ZM41.1852 18.9184C41.5252 18.9184 41.8252 18.8384 42.0852 18.6784C42.3552 18.5184 42.5652 18.2734 42.7152 17.9434C42.8752 17.6134 42.9552 17.2034 42.9552 16.7134C42.9552 16.2234 42.8752 15.8184 42.7152 15.4984C42.5652 15.1684 42.3552 14.9234 42.0852 14.7634C41.8252 14.5934 41.5302 14.5084 41.2002 14.5084C40.8802 14.5084 40.5852 14.5934 40.3152 14.7634C40.0452 14.9234 39.8302 15.1684 39.6702 15.4984C39.5202 15.8184 39.4452 16.2234 39.4452 16.7134C39.4452 17.2034 39.5202 17.6134 39.6702 17.9434C39.8302 18.2734 40.0402 18.5184 40.3002 18.6784C40.5702 18.8384 40.8652 18.9184 41.1852 18.9184ZM46.3205 20.4934V9.69341H48.3455V20.4934H46.3205ZM52.4195 20.6734C51.7895 20.6734 51.2695 20.5734 50.8595 20.3734C50.4495 20.1634 50.1445 19.8884 49.9445 19.5484C49.7545 19.1984 49.6595 18.8134 49.6595 18.3934C49.6595 17.9334 49.7745 17.5284 50.0045 17.1784C50.2445 16.8284 50.5995 16.5534 51.0695 16.3534C51.5495 16.1534 52.1495 16.0534 52.8695 16.0534H54.7445C54.7445 15.6834 54.6945 15.3784 54.5945 15.1384C54.4945 14.8884 54.3395 14.7034 54.1295 14.5834C53.9195 14.4634 53.6395 14.4034 53.2895 14.4034C52.9095 14.4034 52.5845 14.4884 52.3145 14.6584C52.0545 14.8184 51.8945 15.0684 51.8345 15.4084H49.8695C49.9195 14.8684 50.0945 14.4034 50.3945 14.0134C50.7045 13.6134 51.1095 13.3034 51.6095 13.0834C52.1195 12.8634 52.6845 12.7534 53.3045 12.7534C54.0145 12.7534 54.6295 12.8734 55.1495 13.1134C55.6695 13.3534 56.0695 13.6984 56.3495 14.1484C56.6295 14.5984 56.7695 15.1534 56.7695 15.8134V20.4934H55.0595L54.8345 19.3384C54.7245 19.5384 54.5945 19.7184 54.4445 19.8784C54.2945 20.0384 54.1195 20.1784 53.9195 20.2984C53.7195 20.4184 53.4945 20.5084 53.2445 20.5684C52.9945 20.6384 52.7195 20.6734 52.4195 20.6734ZM52.8995 19.1134C53.1595 19.1134 53.3895 19.0684 53.5895 18.9784C53.7995 18.8784 53.9795 18.7484 54.1295 18.5884C54.2795 18.4184 54.3945 18.2284 54.4745 18.0184C54.5645 17.7984 54.6245 17.5634 54.6545 17.3134V17.2984H53.1095C52.7995 17.2984 52.5445 17.3384 52.3445 17.4184C52.1545 17.4884 52.0145 17.5934 51.9245 17.7334C51.8345 17.8734 51.7895 18.0334 51.7895 18.2134C51.7895 18.4134 51.8345 18.5784 51.9245 18.7084C52.0145 18.8384 52.1445 18.9384 52.3145 19.0084C52.4845 19.0784 52.6795 19.1134 52.8995 19.1134ZM58.2086 20.4934V12.9334H60.0086L60.2036 14.3284C60.3836 13.9984 60.6086 13.7184 60.8786 13.4884C61.1586 13.2584 61.4736 13.0784 61.8236 12.9484C62.1836 12.8184 62.5786 12.7534 63.0086 12.7534V14.8984H62.3186C62.0186 14.8984 61.7386 14.9334 61.4786 15.0034C61.2286 15.0734 61.0086 15.1884 60.8186 15.3484C60.6286 15.4984 60.4836 15.7084 60.3836 15.9784C60.2836 16.2484 60.2336 16.5884 60.2336 16.9984V20.4934H58.2086ZM64.0613 16.9234V15.2284H70.3913V16.9234H64.0613ZM75.7488 20.6734C74.9888 20.6734 74.3138 20.5034 73.7238 20.1634C73.1338 19.8234 72.6738 19.3584 72.3438 18.7684C72.0138 18.1784 71.8488 17.5034 71.8488 16.7434C71.8488 15.9634 72.0138 15.2784 72.3438 14.6884C72.6738 14.0884 73.1338 13.6184 73.7238 13.2784C74.3138 12.9284 74.9888 12.7534 75.7488 12.7534C76.7188 12.7534 77.5338 13.0084 78.1938 13.5184C78.8538 14.0284 79.2738 14.7284 79.4538 15.6184H77.3088C77.2188 15.2684 77.0288 14.9934 76.7388 14.7934C76.4588 14.5934 76.1238 14.4934 75.7338 14.4934C75.3838 14.4934 75.0688 14.5834 74.7888 14.7634C74.5188 14.9334 74.3038 15.1884 74.1438 15.5284C73.9938 15.8584 73.9188 16.2534 73.9188 16.7134C73.9188 17.0634 73.9638 17.3784 74.0538 17.6584C74.1438 17.9284 74.2688 18.1634 74.4288 18.3634C74.5888 18.5534 74.7788 18.6984 74.9988 18.7984C75.2288 18.8984 75.4738 18.9484 75.7338 18.9484C75.9938 18.9484 76.2288 18.9034 76.4388 18.8134C76.6588 18.7234 76.8438 18.5984 76.9938 18.4384C77.1438 18.2684 77.2488 18.0634 77.3088 17.8234H79.4538C79.2738 18.6934 78.8488 19.3884 78.1788 19.9084C77.5188 20.4184 76.7088 20.6734 75.7488 20.6734ZM80.7502 20.4934V9.69341H82.7752V14.0584C83.0252 13.6584 83.3552 13.3434 83.7652 13.1134C84.1852 12.8734 84.6702 12.7534 85.2202 12.7534C85.8502 12.7534 86.3802 12.8884 86.8102 13.1584C87.2402 13.4184 87.5652 13.7984 87.7852 14.2984C88.0052 14.7984 88.1152 15.4184 88.1152 16.1584V20.4934H86.1052V16.3384C86.1052 15.7384 85.9802 15.2784 85.7302 14.9584C85.4802 14.6284 85.0852 14.4634 84.5452 14.4634C84.2152 14.4634 83.9152 14.5434 83.6452 14.7034C83.3752 14.8634 83.1602 15.0984 83.0002 15.4084C82.8502 15.7084 82.7752 16.0684 82.7752 16.4884V20.4934H80.7502ZM93.2026 20.6734C92.4426 20.6734 91.7676 20.5134 91.1776 20.1934C90.5976 19.8634 90.1426 19.4084 89.8126 18.8284C89.4926 18.2384 89.3326 17.5584 89.3326 16.7884C89.3326 15.9984 89.4926 15.3034 89.8126 14.7034C90.1426 14.0934 90.5976 13.6184 91.1776 13.2784C91.7576 12.9284 92.4326 12.7534 93.2026 12.7534C93.9526 12.7534 94.6076 12.9184 95.1676 13.2484C95.7276 13.5784 96.1626 14.0234 96.4726 14.5834C96.7826 15.1434 96.9376 15.7784 96.9376 16.4884C96.9376 16.5884 96.9376 16.7034 96.9376 16.8334C96.9376 16.9534 96.9276 17.0784 96.9076 17.2084H90.7726V15.9784H94.8976C94.8676 15.4884 94.6926 15.1034 94.3726 14.8234C94.0626 14.5434 93.6726 14.4034 93.2026 14.4034C92.8626 14.4034 92.5476 14.4834 92.2576 14.6434C91.9676 14.7934 91.7376 15.0284 91.5676 15.3484C91.4076 15.6684 91.3276 16.0734 91.3276 16.5634V16.9984C91.3276 17.4084 91.4026 17.7684 91.5526 18.0784C91.7126 18.3784 91.9326 18.6134 92.2126 18.7834C92.4926 18.9434 92.8176 19.0234 93.1876 19.0234C93.5576 19.0234 93.8626 18.9434 94.1026 18.7834C94.3526 18.6234 94.5376 18.4184 94.6576 18.1684H96.7276C96.5876 18.6384 96.3526 19.0634 96.0226 19.4434C95.6926 19.8234 95.2876 20.1234 94.8076 20.3434C94.3276 20.5634 93.7926 20.6734 93.2026 20.6734ZM101.806 20.6734C101.046 20.6734 100.371 20.5034 99.7811 20.1634C99.1911 19.8234 98.7311 19.3584 98.4011 18.7684C98.0711 18.1784 97.9061 17.5034 97.9061 16.7434C97.9061 15.9634 98.0711 15.2784 98.4011 14.6884C98.7311 14.0884 99.1911 13.6184 99.7811 13.2784C100.371 12.9284 101.046 12.7534 101.806 12.7534C102.776 12.7534 103.591 13.0084 104.251 13.5184C104.911 14.0284 105.331 14.7284 105.511 15.6184H103.366C103.276 15.2684 103.086 14.9934 102.796 14.7934C102.516 14.5934 102.181 14.4934 101.791 14.4934C101.441 14.4934 101.126 14.5834 100.846 14.7634C100.576 14.9334 100.361 15.1884 100.201 15.5284C100.051 15.8584 99.9761 16.2534 99.9761 16.7134C99.9761 17.0634 100.021 17.3784 100.111 17.6584C100.201 17.9284 100.326 18.1634 100.486 18.3634C100.646 18.5534 100.836 18.6984 101.056 18.7984C101.286 18.8984 101.531 18.9484 101.791 18.9484C102.051 18.9484 102.286 18.9034 102.496 18.8134C102.716 18.7234 102.901 18.5984 103.051 18.4384C103.201 18.2684 103.306 18.0634 103.366 17.8234H105.511C105.331 18.6934 104.906 19.3884 104.236 19.9084C103.576 20.4184 102.766 20.6734 101.806 20.6734ZM111.757 20.4934L108.532 16.3534L111.427 12.9334H113.812L110.077 17.2084V15.6034L114.277 20.4934H111.757ZM106.807 20.4934V9.69341H108.832V20.4934H106.807Z" fill="#1365EA"/>
<path d="M115.944 20.5684C115.564 20.5684 115.259 20.4584 115.029 20.2384C114.799 20.0084 114.684 19.7284 114.684 19.3984C114.684 19.0684 114.799 18.7934 115.029 18.5734C115.259 18.3434 115.564 18.2284 115.944 18.2284C116.304 18.2284 116.599 18.3434 116.829 18.5734C117.059 18.7934 117.174 19.0684 117.174 19.3984C117.174 19.7284 117.059 20.0084 116.829 20.2384C116.599 20.4584 116.304 20.5684 115.944 20.5684ZM118.404 20.4934V12.9334H120.429V20.4934H118.404ZM119.424 11.8984C119.064 11.8984 118.764 11.7934 118.524 11.5834C118.294 11.3634 118.179 11.0884 118.179 10.7584C118.179 10.4284 118.294 10.1584 118.524 9.94841C118.764 9.72841 119.064 9.61841 119.424 9.61841C119.794 9.61841 120.094 9.72841 120.324 9.94841C120.564 10.1584 120.684 10.4284 120.684 10.7584C120.684 11.0884 120.564 11.3634 120.324 11.5834C120.094 11.7934 119.794 11.8984 119.424 11.8984ZM125.595 20.6734C124.875 20.6734 124.225 20.5084 123.645 20.1784C123.075 19.8384 122.62 19.3734 122.28 18.7834C121.95 18.1834 121.785 17.4984 121.785 16.7284C121.785 15.9384 121.95 15.2484 122.28 14.6584C122.62 14.0584 123.08 13.5934 123.66 13.2634C124.24 12.9234 124.89 12.7534 125.61 12.7534C126.34 12.7534 126.99 12.9234 127.56 13.2634C128.14 13.5934 128.595 14.0584 128.925 14.6584C129.265 15.2484 129.435 15.9334 129.435 16.7134C129.435 17.4934 129.265 18.1834 128.925 18.7834C128.595 19.3734 128.14 19.8384 127.56 20.1784C126.98 20.5084 126.325 20.6734 125.595 20.6734ZM125.595 18.9184C125.935 18.9184 126.235 18.8384 126.495 18.6784C126.765 18.5184 126.975 18.2734 127.125 17.9434C127.285 17.6134 127.365 17.2034 127.365 16.7134C127.365 16.2234 127.285 15.8184 127.125 15.4984C126.975 15.1684 126.765 14.9234 126.495 14.7634C126.235 14.5934 125.94 14.5084 125.61 14.5084C125.29 14.5084 124.995 14.5934 124.725 14.7634C124.455 14.9234 124.24 15.1684 124.08 15.4984C123.93 15.8184 123.855 16.2234 123.855 16.7134C123.855 17.2034 123.93 17.6134 124.08 17.9434C124.24 18.2734 124.45 18.5184 124.71 18.6784C124.98 18.8384 125.275 18.9184 125.595 18.9184Z" fill="#BEBEBE"/>
<defs>
<linearGradient id="paint0_linear_13_1138" x1="10.6766" y1="19.2691" x2="10.6766" y2="6.11926" gradientUnits="userSpaceOnUse">
<stop stop-color="#1365EA"/>
<stop offset="1" stop-color="#1365EA" stop-opacity="0"/>
</linearGradient>
<clipPath id="clip0_13_1138">
<path d="M0 5.20788C0 2.33165 2.33165 0 5.20788 0H15.8842C18.7605 0 21.0921 2.33165 21.0921 5.20788V25.7789C21.0921 28.6552 18.7605 30.9868 15.8842 30.9868H5.20788C2.33165 30.9868 0 28.6552 0 25.7789V5.20788Z" fill="white"/>
</clipPath>
</defs>
</svg>
