<svg width="512" height="506" viewBox="0 0 512 506" fill="none" xmlns="http://www.w3.org/2000/svg">
<path d="M0 64.0001C0 28.6538 28.6538 0 64 0H448C483.346 0 512 28.6538 512 64V441.6C512 476.946 483.346 505.6 448 505.6H64C28.6538 505.6 0 476.946 0 441.6V64.0001Z" fill="white"/>
<path d="M409.773 154.792L236.439 329.996C231.599 334.889 223.259 331.461 223.259 324.578V271.485C223.259 269.457 224.06 267.51 225.486 266.067L398.82 90.8632C403.661 85.97 412 89.398 412 96.2812V149.374C412 151.402 411.2 153.349 409.773 154.792Z" fill="#1365EA"/>
<path d="M409.773 239.532L236.439 414.737C231.599 419.63 223.259 416.202 223.259 409.319V356.226C223.259 354.197 224.06 352.25 225.486 350.808L398.82 175.604C403.661 170.711 412 174.139 412 181.022V234.114C412 236.143 411.2 238.09 409.773 239.532Z" fill="#1365EA"/>
<path d="M215.145 346.96L113.197 243.229C108.363 238.311 99.9986 241.734 99.9986 248.629V301.648C99.9986 303.668 100.792 305.607 102.208 307.048L204.156 410.779C208.989 415.696 217.354 412.274 217.354 405.379V352.36C217.354 350.34 216.561 348.4 215.145 346.96Z" fill="#073C93"/>
<path d="M215.145 264.034L113.197 160.303C108.363 155.385 99.9986 158.808 99.9986 165.703V218.722C99.9986 220.742 100.792 222.682 102.208 224.122L204.156 327.853C208.989 332.771 217.354 329.348 217.354 322.453V269.434C217.354 267.414 216.561 265.475 215.145 264.034Z" fill="#073C93"/>
<path d="M215.145 348.775L113.197 245.044C108.363 240.126 99.9986 243.549 99.9986 250.444V303.463C99.9986 305.483 100.792 307.422 102.208 308.863L204.156 412.593C208.989 417.511 217.354 414.089 217.354 407.194V354.175C217.354 352.155 216.561 350.215 215.145 348.775Z" fill="#073C93"/>
<path d="M215.145 264.034L113.197 160.303C108.363 155.385 99.9986 158.808 99.9986 165.703V218.722C99.9986 220.742 100.792 222.682 102.208 224.122L204.156 327.853C208.989 332.771 217.354 329.348 217.354 322.453V269.434C217.354 267.414 216.561 265.475 215.145 264.034Z" fill="#073C93"/>
</svg>
