<svg width="41" height="60" viewBox="0 0 41 60" fill="none" xmlns="http://www.w3.org/2000/svg">
<path opacity="0.4" d="M38.2923 14.3953L16.2601 36.2935C15.8678 36.6834 15.2334 36.6808 14.8444 36.2876L2.70186 24.0173C2.31399 23.6254 2.3166 22.9934 2.70771 22.6047L24.7399 0.706489C25.1322 0.316556 25.7666 0.319184 26.1556 0.712354L38.2981 12.9827C38.686 13.3746 38.6834 14.0066 38.2923 14.3953Z" fill="url(#paint0_linear_13_236)"/>
<path d="M40.2109 24.0278L17.7109 46.7706C17.0825 47.4058 16 46.9608 16 46.0673V39.1755C16 38.9122 16.1039 38.6594 16.2891 38.4722L38.7891 15.7294C39.4175 15.0942 40.5 15.5392 40.5 16.4327V23.3245C40.5 23.5878 40.3961 23.8405 40.2109 24.0278Z" fill="#1365EA"/>
<path d="M40.2109 35.0278L17.7109 57.7706C17.0825 58.4058 16 57.9608 16 57.0673V50.1755C16 49.9122 16.1039 49.6594 16.2891 49.4722L38.7891 26.7294C39.4175 26.0942 40.5 26.5392 40.5 27.4327V34.3245C40.5 34.5878 40.3961 34.8405 40.2109 35.0278Z" fill="#1365EA"/>
<path d="M14.9467 48.9727L1.71302 35.5076C1.08561 34.8692 -0.000185013 35.3135 -0.000185013 36.2086V43.0909C-0.000185013 43.3531 0.102806 43.6048 0.286606 43.7918L13.5203 57.2568C14.1477 57.8952 15.2335 57.451 15.2335 56.5559V49.6736C15.2335 49.4114 15.1305 49.1597 14.9467 48.9727Z" fill="#073C93"/>
<path d="M14.9467 38.2083L1.71302 24.7432C1.08561 24.1048 -0.000185013 24.5491 -0.000185013 25.4442V32.3264C-0.000185013 32.5887 0.102806 32.8404 0.286606 33.0274L13.5203 46.4924C14.1477 47.1308 15.2335 46.6866 15.2335 45.7915V38.9092C15.2335 38.647 15.1305 38.3953 14.9467 38.2083Z" fill="#073C93"/>
<defs>
<linearGradient id="paint0_linear_13_236" x1="20.5" y1="37" x2="20.5" y2="11.75" gradientUnits="userSpaceOnUse">
<stop stop-color="#1365EA"/>
<stop offset="1" stop-color="#0B3984" stop-opacity="0"/>
</linearGradient>
</defs>
</svg>
