<svg style="--trust-ink:#8da99c;--trust-mid:#8da99c;--trust-wash:#8da99c" xmlns="http://www.w3.org/2000/svg" viewBox="0 0 320 320" role="img" aria-label="Direkt zum Ergebnis"><title>Direkt zum Ergebnis · Entwurf</title><defs><style>.line{stroke:var(--trust-ink,#657f70);stroke-width:6;stroke-linecap:round;stroke-linejoin:round}.fine{stroke:var(--trust-ink,#657f70);stroke-width:4;stroke-linecap:round;stroke-linejoin:round;fill:none}.paper{fill:var(--trust-paper,none)}.wash{fill:var(--trust-wash,#8ba591)}.mid{fill:var(--trust-mid,#8ba591);fill-opacity:.15}.solid{fill:var(--trust-ink,#657f70)}.empty{fill:none}[data-layer="shield-contour"] path{stroke-width:3.8;opacity:.7}</style><mask id="scene-37-mask-0" maskUnits="userSpaceOnUse" x="0" y="0" width="1000" height="1000" style="mask-type:alpha"><image x="30" y="322.5" width="750" height="375" href="/design/trust/texture.png" filter="url(#scene-37-density)" transform="rotate(0 405 510)" /></mask><filter id="scene-37-density" color-interpolation-filters="sRGB" x="0" y="0" width="100%" height="100%"><feColorMatrix type="matrix" values="0 0 0 0 1 0 0 0 0 1 0 0 0 0 1 -0.46772 -1.57344 -0.15884 0 2.2" result="density" /><feComposite in="density" in2="SourceAlpha" operator="in" /></filter></defs><g data-layer="shield-fill" opacity=".06"><g class="move-layer" data-depth="0"><path d="M160 31 C132 47 103 54 65 58 Q49 60 49 78 L49 159 C49 216 89 252 151 281 Q160 286 169 281 C231 252 271 216 271 159 L271 78 Q271 60 255 58 C217 54 188 47 160 31Z" class="paper" /></g></g><g data-layer="watercolor"><g class="move-layer" data-depth="1"><g transform="translate(0 -7) scale(.34)"><rect width="1000" height="1000" class="wash" opacity=".22" mask="url(#scene-37-mask-0)" /></g></g></g><g data-layer="shield-contour"><g class="move-layer" data-depth="0"><path d="M160 31 C132 47 103 54 65 58 Q49 60 49 78 L49 159 C49 216 89 252 151 281 Q160 286 169 281 C231 252 271 216 271 159 L271 78 Q271 60 255 58 C217 54 188 47 160 31Z" class="line empty" /></g></g><g data-layer="door-frame"><g class="move-layer" data-depth="2"><g transform="translate(160 160) scale(.88) translate(-160 -160)"><path d="M99 230 L99 87 L205 87 L205 229" class="line empty" /></g></g></g><g data-layer="door-panel"><g class="move-layer" data-depth="3"><g transform="translate(160 160) scale(.88) translate(-160 -160)"><path d="M110 101 L164 122 L164 238 L110 217Z" class="line mid" /><circle cx="150" cy="174" r="5" class="solid" /></g></g></g><g data-layer="access-arrow"><g class="move-layer" data-depth="5"><g transform="translate(160 160) scale(.88) translate(-160 -160)"><path d="M185 160 L245 160 M225 139 L246 160 L225 182" class="line empty" /></g></g></g></svg>